<svg xmlns="http://www.w3.org/2000/svg" xmlns:xlink="http://www.w3.org/1999/xlink" contentStyleType="text/css" data-diagram-type="SEQUENCE" height="208px" preserveAspectRatio="none" style="width:441px;height:208px;background:#FFFFFF;" version="1.1" viewBox="0 0 441 208" width="441px" zoomAndPan="magnify"><defs/><g><g><title>frontend</title><rect fill="transparent" height="136.5313" width="8" x="37.9927" y="36.2969"/><line style="stroke:#181818;stroke-width:0.5;stroke-dasharray:5.0,5.0;" x1="41" x2="41" y1="36.2969" y2="172.8281"/></g><g><title>api</title><rect fill="transparent" height="136.5313" width="8" x="204.1865" y="36.2969"/><line style="stroke:#181818;stroke-width:0.5;stroke-dasharray:5.0,5.0;" x1="207.5088" x2="207.5088" y1="36.2969" y2="172.8281"/></g><g><title>workerapi</title><rect fill="transparent" height="136.5313" width="8" x="389.2773" y="36.2969"/><line style="stroke:#181818;stroke-width:0.5;stroke-dasharray:5.0,5.0;" x1="392.4756" x2="392.4756" y1="36.2969" y2="172.8281"/></g><rect fill="#E2E2F0" height="30.2969" rx="2.5" ry="2.5" style="stroke:#181818;stroke-width:0.5;" width="73.9854" x="5" y="5"/><text fill="#000000" font-family="sans-serif" font-size="14" lengthAdjust="spacing" textLength="59.9854" x="12" y="24.9951">frontend</text><rect fill="#E2E2F0" height="30.2969" rx="2.5" ry="2.5" style="stroke:#181818;stroke-width:0.5;" width="73.9854" x="5" y="171.8281"/><text fill="#000000" font-family="sans-serif" font-size="14" lengthAdjust="spacing" textLength="59.9854" x="12" y="191.8232">frontend</text><rect fill="#E2E2F0" height="30.2969" rx="2.5" ry="2.5" style="stroke:#181818;stroke-width:0.5;" width="35.3555" x="190.5088" y="5"/><text fill="#000000" font-family="sans-serif" font-size="14" lengthAdjust="spacing" textLength="21.3555" x="197.5088" y="24.9951">api</text><rect fill="#E2E2F0" height="30.2969" rx="2.5" ry="2.5" style="stroke:#181818;stroke-width:0.5;" width="35.3555" x="190.5088" y="171.8281"/><text fill="#000000" font-family="sans-serif" font-size="14" lengthAdjust="spacing" textLength="21.3555" x="197.5088" y="191.8232">api</text><rect fill="#E2E2F0" height="30.2969" rx="2.5" ry="2.5" style="stroke:#181818;stroke-width:0.5;" width="83.6035" x="351.4756" y="5"/><text fill="#000000" font-family="sans-serif" font-size="14" lengthAdjust="spacing" textLength="69.6035" x="358.4756" y="24.9951">workerapi</text><rect fill="#E2E2F0" height="30.2969" rx="2.5" ry="2.5" style="stroke:#181818;stroke-width:0.5;" width="83.6035" x="351.4756" y="171.8281"/><text fill="#000000" font-family="sans-serif" font-size="14" lengthAdjust="spacing" textLength="69.6035" x="358.4756" y="191.8232">workerapi</text><polygon fill="#181818" points="196.1865,63.4297,206.1865,67.4297,196.1865,71.4297,200.1865,67.4297" style="stroke:#181818;stroke-width:1;"/><line style="stroke:#181818;stroke-width:1;" x1="41.9927" x2="202.1865" y1="67.4297" y2="67.4297"/><text fill="#000000" font-family="sans-serif" font-size="13" lengthAdjust="spacing" textLength="99.1123" x="48.9927" y="62.3638">GET /worker/all</text><polygon fill="#181818" points="381.2773,92.5625,391.2773,96.5625,381.2773,100.5625,385.2773,96.5625" style="stroke:#181818;stroke-width:1;"/><line style="stroke:#181818;stroke-width:1;" x1="208.1865" x2="387.2773" y1="96.5625" y2="96.5625"/><text fill="#000000" font-family="sans-serif" font-size="13" lengthAdjust="spacing" textLength="161.0908" x="215.1865" y="91.4966">GET /worker/list_workers</text><polygon fill="#181818" points="219.1865,121.6953,209.1865,125.6953,219.1865,129.6953,215.1865,125.6953" style="stroke:#181818;stroke-width:1;"/><line style="stroke:#181818;stroke-width:1;" x1="213.1865" x2="392.2773" y1="125.6953" y2="125.6953"/><text fill="#000000" font-family="sans-serif" font-size="13" lengthAdjust="spacing" textLength="142.1938" x="225.1865" y="120.6294">200 &lt;list of workers&gt;</text><polygon fill="#181818" points="52.9927,150.8281,42.9927,154.8281,52.9927,158.8281,48.9927,154.8281" style="stroke:#181818;stroke-width:1;"/><line style="stroke:#181818;stroke-width:1;" x1="46.9927" x2="207.1865" y1="154.8281" y2="154.8281"/><text fill="#000000" font-family="sans-serif" font-size="13" lengthAdjust="spacing" textLength="142.1938" x="58.9927" y="149.7622">200 &lt;list of workers&gt;</text><!--SRC=[IolApoj9pKjHqBLJI2p8j59mTmrHq2_FByfEBT9FpCdX0Wg2v20Y62foCejBuY7iOYwu6gXX2bOAHWO62ZOWHGhvQL0pYkrWPgR1xCQX3W00]--></g></svg>